<svg width="394" height="394" viewBox="0 0 394 394" fill="none" xmlns="http://www.w3.org/2000/svg">
<path d="M59.6934 160V117.505H76.7078C79.834 117.505 82.4415 117.969 84.5303 118.896C86.619 119.822 88.1891 121.109 89.2404 122.755C90.2917 124.387 90.8173 126.269 90.8173 128.399C90.8173 130.059 90.4853 131.518 89.8213 132.777C89.1574 134.022 88.2444 135.046 87.0824 135.848C85.9343 136.636 84.6202 137.197 83.1401 137.529V137.944C84.7585 138.013 86.2732 138.469 87.6842 139.313C89.109 140.157 90.264 141.339 91.1493 142.861C92.0346 144.369 92.4773 146.167 92.4773 148.256C92.4773 150.511 91.917 152.523 90.7966 154.294C89.6899 156.051 88.0507 157.441 85.879 158.465C83.7072 159.488 81.0306 160 77.849 160H59.6934ZM68.6778 152.655H76.0023C78.5061 152.655 80.332 152.178 81.4801 151.223C82.6283 150.255 83.2023 148.968 83.2023 147.364C83.2023 146.188 82.9187 145.15 82.3516 144.251C81.7845 143.352 80.9752 142.647 79.9239 142.135C78.8865 141.623 77.6484 141.367 76.2098 141.367H68.6778V152.655ZM68.6778 135.288H75.3383C76.5695 135.288 77.6623 135.073 78.6167 134.644C79.585 134.202 80.3458 133.579 80.8991 132.777C81.4663 131.975 81.7499 131.013 81.7499 129.893C81.7499 128.357 81.2035 127.119 80.1107 126.179C79.0317 125.238 77.4963 124.768 75.5043 124.768H68.6778V135.288ZM118.595 146.43V128.129H127.435V160H118.948V154.211H118.616C117.897 156.078 116.7 157.579 115.027 158.714C113.367 159.848 111.34 160.415 108.947 160.415C106.817 160.415 104.942 159.931 103.324 158.963C101.705 157.994 100.44 156.618 99.5268 154.833C98.6277 153.049 98.1712 150.912 98.1574 148.422V128.129H106.997V146.845C107.01 148.726 107.515 150.213 108.511 151.306C109.507 152.399 110.842 152.945 112.516 152.945C113.581 152.945 114.577 152.703 115.504 152.219C116.431 151.721 117.178 150.988 117.745 150.02C118.326 149.051 118.609 147.855 118.595 146.43ZM134.505 160V128.129H143.344V160H134.505ZM138.945 124.021C137.631 124.021 136.504 123.585 135.563 122.714C134.636 121.828 134.173 120.77 134.173 119.539C134.173 118.322 134.636 117.277 135.563 116.406C136.504 115.52 137.631 115.078 138.945 115.078C140.259 115.078 141.38 115.52 142.307 116.406C143.247 117.277 143.718 118.322 143.718 119.539C143.718 120.77 143.247 121.828 142.307 122.714C141.38 123.585 140.259 124.021 138.945 124.021ZM159.264 117.505V160H150.425V117.505H159.264ZM178.089 160.519C175.668 160.519 173.476 159.896 171.511 158.651C169.561 157.393 168.012 155.546 166.863 153.111C165.729 150.663 165.162 147.661 165.162 144.106C165.162 140.454 165.75 137.418 166.926 134.997C168.101 132.563 169.665 130.744 171.615 129.54C173.579 128.323 175.73 127.714 178.068 127.714C179.853 127.714 181.34 128.018 182.529 128.627C183.733 129.222 184.701 129.969 185.434 130.868C186.181 131.753 186.748 132.625 187.136 133.482H187.405V117.505H196.224V160H187.509V154.896H187.136C186.721 155.781 186.133 156.659 185.372 157.531C184.625 158.388 183.65 159.101 182.446 159.668C181.257 160.235 179.804 160.519 178.089 160.519ZM180.89 153.485C182.315 153.485 183.518 153.097 184.5 152.323C185.496 151.534 186.257 150.435 186.783 149.024C187.322 147.613 187.592 145.96 187.592 144.065C187.592 142.169 187.329 140.523 186.804 139.126C186.278 137.729 185.517 136.65 184.521 135.889C183.525 135.129 182.315 134.748 180.89 134.748C179.438 134.748 178.213 135.142 177.217 135.931C176.221 136.719 175.467 137.812 174.956 139.209C174.444 140.606 174.188 142.225 174.188 144.065C174.188 145.918 174.444 147.557 174.956 148.982C175.481 150.393 176.235 151.5 177.217 152.302C178.213 153.09 179.438 153.485 180.89 153.485ZM243.428 117.505H252.413V145.102C252.413 148.201 251.673 150.912 250.193 153.236C248.726 155.56 246.672 157.372 244.03 158.672C241.388 159.959 238.31 160.602 234.797 160.602C231.269 160.602 228.185 159.959 225.542 158.672C222.9 157.372 220.846 155.56 219.38 153.236C217.914 150.912 217.18 148.201 217.18 145.102V117.505H226.165V144.334C226.165 145.953 226.518 147.391 227.223 148.65C227.942 149.909 228.952 150.898 230.253 151.617C231.553 152.337 233.068 152.696 234.797 152.696C236.54 152.696 238.054 152.337 239.341 151.617C240.641 150.898 241.644 149.909 242.349 148.65C243.069 147.391 243.428 145.953 243.428 144.334V117.505ZM268.789 117.505V160H259.805V117.505H268.789ZM306.677 128.129V134.769H287.007V128.129H306.677ZM291.51 160V125.826C291.51 123.516 291.959 121.6 292.858 120.078C293.771 118.557 295.016 117.416 296.593 116.655C298.17 115.894 299.962 115.514 301.967 115.514C303.323 115.514 304.561 115.617 305.681 115.825C306.816 116.032 307.659 116.219 308.213 116.385L306.636 123.025C306.29 122.914 305.861 122.81 305.349 122.714C304.851 122.617 304.34 122.568 303.814 122.568C302.514 122.568 301.608 122.873 301.096 123.481C300.584 124.076 300.328 124.913 300.328 125.992V160H291.51ZM325.336 160.622C322.113 160.622 319.326 159.938 316.974 158.568C314.636 157.185 312.831 155.262 311.559 152.8C310.286 150.324 309.65 147.454 309.65 144.189C309.65 140.897 310.286 138.02 311.559 135.557C312.831 133.081 314.636 131.158 316.974 129.789C319.326 128.406 322.113 127.714 325.336 127.714C328.559 127.714 331.34 128.406 333.677 129.789C336.029 131.158 337.841 133.081 339.114 135.557C340.386 138.02 341.023 140.897 341.023 144.189C341.023 147.454 340.386 150.324 339.114 152.8C337.841 155.262 336.029 157.185 333.677 158.568C331.34 159.938 328.559 160.622 325.336 160.622ZM325.378 153.775C326.844 153.775 328.068 153.36 329.05 152.53C330.032 151.686 330.772 150.538 331.27 149.086C331.782 147.633 332.038 145.98 332.038 144.127C332.038 142.273 331.782 140.62 331.27 139.168C330.772 137.715 330.032 136.567 329.05 135.723C328.068 134.88 326.844 134.458 325.378 134.458C323.898 134.458 322.653 134.88 321.643 135.723C320.647 136.567 319.893 137.715 319.381 139.168C318.883 140.62 318.634 142.273 318.634 144.127C318.634 145.98 318.883 147.633 319.381 149.086C319.893 150.538 320.647 151.686 321.643 152.53C322.653 153.36 323.898 153.775 325.378 153.775ZM346.77 160V128.129H355.34V133.69H355.672C356.253 131.712 357.228 130.218 358.597 129.208C359.967 128.184 361.544 127.673 363.328 127.673C363.771 127.673 364.248 127.7 364.76 127.756C365.272 127.811 365.721 127.887 366.109 127.984V135.827C365.694 135.703 365.119 135.592 364.386 135.495C363.653 135.398 362.982 135.35 362.374 135.35C361.073 135.35 359.911 135.633 358.888 136.201C357.878 136.754 357.076 137.529 356.481 138.524C355.9 139.52 355.609 140.669 355.609 141.969V160H346.77ZM82.1389 231.602C80.1055 231.602 78.2934 231.249 76.7026 230.544C75.1118 229.824 73.853 228.766 72.9262 227.369C72.0133 225.958 71.5568 224.201 71.5568 222.099C71.5568 220.328 71.8819 218.841 72.532 217.637C73.1821 216.434 74.0674 215.466 75.1879 214.733C76.3084 213.999 77.581 213.446 79.0058 213.073C80.4444 212.699 81.9522 212.436 83.5291 212.284C85.3827 212.09 86.8767 211.911 88.011 211.745C89.1453 211.565 89.9683 211.302 90.4801 210.956C90.9919 210.61 91.2479 210.099 91.2479 209.421V209.296C91.2479 207.982 90.8329 206.965 90.0029 206.246C89.1868 205.527 88.0248 205.167 86.517 205.167C84.9262 205.167 83.6605 205.52 82.7199 206.225C81.7793 206.917 81.1568 207.788 80.8525 208.84L72.6772 208.176C73.0922 206.239 73.9084 204.565 75.1257 203.154C76.343 201.73 77.913 200.637 79.8357 199.876C81.7723 199.101 84.0133 198.714 86.5585 198.714C88.3291 198.714 90.0236 198.922 91.6421 199.337C93.2744 199.752 94.7199 200.395 95.9787 201.266C97.2513 202.138 98.2542 203.258 98.9873 204.628C99.7205 205.983 100.087 207.609 100.087 209.504V231H91.7043V226.58H91.4553C90.9435 227.576 90.2588 228.455 89.4012 229.216C88.5435 229.963 87.513 230.55 86.3095 230.979C85.1061 231.394 83.7159 231.602 82.1389 231.602ZM84.6703 225.501C85.9706 225.501 87.1187 225.246 88.1147 224.734C89.1107 224.208 89.8922 223.503 90.4594 222.617C91.0265 221.732 91.3101 220.729 91.3101 219.609V216.227C91.0334 216.406 90.653 216.572 90.1689 216.724C89.6986 216.863 89.166 216.994 88.5712 217.119C87.9764 217.229 87.3816 217.333 86.7868 217.43C86.1919 217.513 85.6525 217.589 85.1683 217.658C84.1309 217.81 83.2248 218.052 82.4502 218.384C81.6755 218.716 81.0738 219.166 80.645 219.733C80.2162 220.286 80.0017 220.978 80.0017 221.808C80.0017 223.012 80.4375 223.931 81.3089 224.568C82.1942 225.19 83.3147 225.501 84.6703 225.501ZM106.945 242.952V199.129H115.659V204.482H116.054C116.441 203.625 117.001 202.753 117.734 201.868C118.481 200.969 119.45 200.222 120.639 199.627C121.843 199.018 123.337 198.714 125.121 198.714C127.445 198.714 129.589 199.323 131.553 200.54C133.518 201.744 135.088 203.563 136.263 205.997C137.439 208.418 138.027 211.454 138.027 215.106C138.027 218.661 137.453 221.663 136.305 224.111C135.171 226.546 133.621 228.393 131.657 229.651C129.707 230.896 127.521 231.519 125.1 231.519C123.385 231.519 121.926 231.235 120.722 230.668C119.533 230.101 118.557 229.388 117.797 228.531C117.036 227.659 116.455 226.781 116.054 225.896H115.784V242.952H106.945ZM115.597 215.065C115.597 216.96 115.86 218.613 116.386 220.024C116.911 221.435 117.672 222.534 118.668 223.323C119.664 224.097 120.874 224.485 122.299 224.485C123.738 224.485 124.955 224.09 125.951 223.302C126.947 222.5 127.701 221.393 128.213 219.982C128.738 218.557 129.001 216.918 129.001 215.065C129.001 213.225 128.745 211.606 128.233 210.209C127.722 208.812 126.968 207.719 125.972 206.931C124.976 206.142 123.752 205.748 122.299 205.748C120.861 205.748 119.643 206.129 118.647 206.889C117.665 207.65 116.911 208.729 116.386 210.126C115.86 211.523 115.597 213.169 115.597 215.065ZM143.92 242.952V199.129H152.635V204.482H153.029C153.416 203.625 153.976 202.753 154.71 201.868C155.457 200.969 156.425 200.222 157.614 199.627C158.818 199.018 160.312 198.714 162.096 198.714C164.42 198.714 166.564 199.323 168.529 200.54C170.493 201.744 172.063 203.563 173.239 205.997C174.414 208.418 175.002 211.454 175.002 215.106C175.002 218.661 174.428 221.663 173.28 224.111C172.146 226.546 170.597 228.393 168.632 229.651C166.682 230.896 164.496 231.519 162.076 231.519C160.36 231.519 158.901 231.235 157.697 230.668C156.508 230.101 155.533 229.388 154.772 228.531C154.011 227.659 153.43 226.781 153.029 225.896H152.759V242.952H143.92ZM152.572 215.065C152.572 216.96 152.835 218.613 153.361 220.024C153.887 221.435 154.647 222.534 155.643 223.323C156.639 224.097 157.85 224.485 159.274 224.485C160.713 224.485 161.93 224.09 162.926 223.302C163.922 222.5 164.676 221.393 165.188 219.982C165.714 218.557 165.976 216.918 165.976 215.065C165.976 213.225 165.721 211.606 165.209 210.209C164.697 208.812 163.943 207.719 162.947 206.931C161.951 206.142 160.727 205.748 159.274 205.748C157.836 205.748 156.618 206.129 155.623 206.889C154.64 207.65 153.887 208.729 153.361 210.126C152.835 211.523 152.572 213.169 152.572 215.065ZM186.062 231.539C184.692 231.539 183.516 231.055 182.534 230.087C181.566 229.105 181.082 227.929 181.082 226.56C181.082 225.204 181.566 224.042 182.534 223.074C183.516 222.105 184.692 221.621 186.062 221.621C187.39 221.621 188.552 222.105 189.548 223.074C190.544 224.042 191.042 225.204 191.042 226.56C191.042 227.473 190.806 228.31 190.336 229.07C189.88 229.817 189.278 230.419 188.531 230.876C187.784 231.318 186.961 231.539 186.062 231.539Z" fill="white"/>
<path d="M48.4635 55.5055V82H43.6251L32.0984 65.3245H31.9044V82H26.3027V55.5055H31.2187L42.6549 72.168H42.8877V55.5055H48.4635ZM62.0439 82.3881C59.9999 82.3881 58.2404 81.9741 56.7657 81.1462C55.2995 80.3096 54.1697 79.128 53.3762 77.6015C52.5828 76.0663 52.186 74.2509 52.186 72.1551C52.186 70.1111 52.5828 68.3172 53.3762 66.7734C54.1697 65.2296 55.2865 64.0265 56.7268 63.164C58.1758 62.3016 59.8748 61.8704 61.8239 61.8704C63.1349 61.8704 64.3552 62.0817 65.4851 62.5043C66.6235 62.9182 67.6153 63.5435 68.4605 64.3801C69.3143 65.2167 69.9784 66.2689 70.4528 67.5367C70.9271 68.7958 71.1643 70.2706 71.1643 71.9611V73.4747H54.3853V70.0593H65.9767C65.9767 69.2659 65.8042 68.563 65.4592 67.9506C65.1142 67.3383 64.6355 66.8596 64.0232 66.5147C63.4195 66.1611 62.7166 65.9843 61.9145 65.9843C61.0779 65.9843 60.3362 66.1783 59.6894 66.5664C59.0512 66.9459 58.5509 67.459 58.1887 68.1059C57.8265 68.7441 57.641 69.4556 57.6324 70.2405V73.4876C57.6324 74.4708 57.8135 75.3203 58.1758 76.0361C58.5466 76.752 59.0684 77.3039 59.7411 77.692C60.4138 78.0802 61.2116 78.2742 62.1344 78.2742C62.7468 78.2742 63.3074 78.188 63.8162 78.0155C64.3251 77.843 64.7606 77.5842 65.1228 77.2393C65.4851 76.8943 65.761 76.4717 65.9508 75.9715L71.0479 76.3078C70.7891 77.5325 70.2587 78.6019 69.4566 79.5161C68.6632 80.4217 67.6369 81.1289 66.3777 81.6378C65.1271 82.138 63.6825 82.3881 62.0439 82.3881ZM79.0105 62.1291L82.6586 69.0761L86.3974 62.1291H92.0507L86.2939 72.0645L92.206 82H86.5785L82.6586 75.1306L78.8035 82H73.1113L79.0105 72.0645L73.3183 62.1291H79.0105ZM105.893 62.1291V66.2689H93.9266V62.1291H105.893ZM96.6433 57.3684H102.154V75.8938C102.154 76.4027 102.232 76.7994 102.387 77.084C102.542 77.36 102.758 77.5541 103.034 77.6662C103.319 77.7783 103.646 77.8344 104.017 77.8344C104.276 77.8344 104.535 77.8128 104.793 77.7697C105.052 77.7179 105.251 77.6791 105.389 77.6532L106.255 81.7542C105.979 81.8404 105.591 81.9396 105.091 82.0517C104.591 82.1725 103.983 82.2458 103.267 82.2717C101.939 82.3234 100.774 82.1466 99.774 81.7413C98.7822 81.3359 98.0103 80.7063 97.4583 79.8525C96.9064 78.9987 96.6347 77.9206 96.6433 76.6183V57.3684Z" fill="white"/>
<path d="M79.6742 275.505V302H74.0726V280.822H73.9173L67.85 284.626V279.658L74.4089 275.505H79.6742ZM95.7643 302.362C93.8324 302.362 92.1118 302.03 90.6025 301.366C89.1019 300.693 87.916 299.771 87.0449 298.598C86.1825 297.416 85.7383 296.053 85.7124 294.51H91.3529C91.3874 295.156 91.5987 295.726 91.9868 296.217C92.3835 296.7 92.9096 297.075 93.5651 297.343C94.2205 297.61 94.9579 297.744 95.7773 297.744C96.6311 297.744 97.3857 297.593 98.0412 297.291C98.6967 296.989 99.2098 296.571 99.5807 296.036C99.9515 295.501 100.137 294.885 100.137 294.186C100.137 293.479 99.9386 292.854 99.5419 292.31C99.1538 291.758 98.5932 291.327 97.8601 291.017C97.1356 290.706 96.2732 290.551 95.2727 290.551H92.8018V286.437H95.2727C96.1179 286.437 96.8639 286.29 97.5108 285.997C98.1663 285.704 98.6751 285.299 99.0373 284.781C99.3996 284.255 99.5807 283.643 99.5807 282.944C99.5807 282.28 99.4211 281.698 99.102 281.198C98.7915 280.689 98.3517 280.292 97.7825 280.007C97.2219 279.723 96.5664 279.581 95.8161 279.581C95.0571 279.581 94.3628 279.719 93.7332 279.995C93.1037 280.262 92.5991 280.646 92.2196 281.146C91.8402 281.646 91.6375 282.233 91.6116 282.905H86.2428C86.2687 281.379 86.7043 280.033 87.5495 278.869C88.3947 277.705 89.5331 276.795 90.9648 276.139C92.4051 275.475 94.0308 275.143 95.8419 275.143C97.6703 275.143 99.2702 275.475 100.641 276.139C102.013 276.803 103.078 277.7 103.837 278.83C104.604 279.951 104.984 281.211 104.975 282.608C104.984 284.091 104.523 285.329 103.591 286.321C102.668 287.312 101.465 287.942 99.9817 288.209V288.416C101.931 288.666 103.414 289.344 104.432 290.447C105.458 291.543 105.967 292.914 105.959 294.561C105.967 296.071 105.532 297.412 104.652 298.585C103.781 299.758 102.578 300.68 101.043 301.353C99.5074 302.026 97.748 302.362 95.7643 302.362ZM113.258 298.921C112.404 298.921 111.671 298.619 111.059 298.015C110.455 297.412 110.153 296.679 110.153 295.816C110.153 294.971 110.455 294.247 111.059 293.643C111.671 293.039 112.404 292.737 113.258 292.737C114.086 292.737 114.811 293.039 115.431 293.643C116.052 294.247 116.363 294.971 116.363 295.816C116.363 296.385 116.216 296.907 115.923 297.382C115.638 297.847 115.263 298.222 114.798 298.507C114.332 298.783 113.819 298.921 113.258 298.921ZM113.258 285.92C112.404 285.92 111.671 285.618 111.059 285.014C110.455 284.41 110.153 283.677 110.153 282.815C110.153 281.97 110.455 281.249 111.059 280.654C111.671 280.051 112.404 279.749 113.258 279.749C114.086 279.749 114.811 280.051 115.431 280.654C116.052 281.249 116.363 281.97 116.363 282.815C116.363 283.393 116.216 283.919 115.923 284.393C115.638 284.859 115.263 285.23 114.798 285.506C114.332 285.782 113.819 285.92 113.258 285.92ZM130.629 302.362C128.697 302.362 126.976 302.03 125.467 301.366C123.967 300.693 122.781 299.771 121.91 298.598C121.047 297.416 120.603 296.053 120.577 294.51H126.218C126.252 295.156 126.463 295.726 126.851 296.217C127.248 296.7 127.774 297.075 128.43 297.343C129.085 297.61 129.823 297.744 130.642 297.744C131.496 297.744 132.25 297.593 132.906 297.291C133.561 296.989 134.074 296.571 134.445 296.036C134.816 295.501 135.002 294.885 135.002 294.186C135.002 293.479 134.803 292.854 134.407 292.31C134.018 291.758 133.458 291.327 132.725 291.017C132 290.706 131.138 290.551 130.137 290.551H127.666V286.437H130.137C130.983 286.437 131.729 286.29 132.375 285.997C133.031 285.704 133.54 285.299 133.902 284.781C134.264 284.255 134.445 283.643 134.445 282.944C134.445 282.28 134.286 281.698 133.967 281.198C133.656 280.689 133.216 280.292 132.647 280.007C132.087 279.723 131.431 279.581 130.681 279.581C129.922 279.581 129.227 279.719 128.598 279.995C127.968 280.262 127.464 280.646 127.084 281.146C126.705 281.646 126.502 282.233 126.476 282.905H121.107C121.133 281.379 121.569 280.033 122.414 278.869C123.259 277.705 124.398 276.795 125.829 276.139C127.27 275.475 128.895 275.143 130.707 275.143C132.535 275.143 134.135 275.475 135.506 276.139C136.877 276.803 137.943 277.7 138.702 278.83C139.469 279.951 139.849 281.211 139.84 282.608C139.849 284.091 139.387 285.329 138.456 286.321C137.533 287.312 136.33 287.942 134.846 288.209V288.416C136.796 288.666 138.279 289.344 139.297 290.447C140.323 291.543 140.832 292.914 140.823 294.561C140.832 296.071 140.396 297.412 139.517 298.585C138.645 299.758 137.442 300.68 135.907 301.353C134.372 302.026 132.613 302.362 130.629 302.362ZM155.238 302.582C153.013 302.574 151.098 302.026 149.494 300.939C147.899 299.852 146.67 298.279 145.807 296.217C144.953 294.156 144.531 291.676 144.539 288.779C144.539 285.889 144.966 283.427 145.82 281.392C146.682 279.356 147.911 277.808 149.507 276.747C151.111 275.678 153.021 275.143 155.238 275.143C157.454 275.143 159.36 275.678 160.956 276.747C162.56 277.817 163.794 279.369 164.656 281.405C165.518 283.431 165.945 285.889 165.937 288.779C165.937 291.685 165.505 294.169 164.643 296.23C163.789 298.291 162.565 299.865 160.969 300.952C159.373 302.039 157.463 302.582 155.238 302.582ZM155.238 297.938C156.756 297.938 157.968 297.175 158.873 295.648C159.779 294.121 160.227 291.832 160.219 288.779C160.219 286.769 160.012 285.096 159.598 283.759C159.192 282.422 158.614 281.418 157.864 280.745C157.122 280.072 156.247 279.736 155.238 279.736C153.729 279.736 152.521 280.49 151.616 282C150.71 283.509 150.253 285.769 150.244 288.779C150.244 290.814 150.447 292.513 150.852 293.876C151.266 295.23 151.849 296.247 152.599 296.929C153.349 297.601 154.229 297.938 155.238 297.938ZM190.795 286.566V290.939H178.712V286.566H190.795ZM213.547 302.362C211.719 302.362 210.089 302.026 208.657 301.353C207.234 300.68 206.104 299.753 205.268 298.572C204.431 297.39 203.996 296.036 203.961 294.51H209.395C209.455 295.536 209.886 296.368 210.688 297.006C211.49 297.645 212.443 297.964 213.547 297.964C214.427 297.964 215.203 297.77 215.876 297.382C216.557 296.985 217.088 296.437 217.467 295.739C217.855 295.031 218.049 294.221 218.049 293.306C218.049 292.375 217.851 291.556 217.454 290.848C217.066 290.141 216.527 289.589 215.837 289.193C215.147 288.796 214.358 288.593 213.47 288.585C212.693 288.585 211.939 288.744 211.206 289.063C210.481 289.382 209.916 289.818 209.511 290.37L204.53 289.477L205.785 275.505H221.982V280.085H210.404L209.718 286.722H209.873C210.339 286.066 211.042 285.523 211.982 285.092C212.922 284.66 213.974 284.445 215.139 284.445C216.734 284.445 218.157 284.82 219.408 285.57C220.658 286.321 221.646 287.351 222.37 288.662C223.095 289.964 223.453 291.465 223.444 293.164C223.453 294.949 223.039 296.536 222.202 297.925C221.374 299.305 220.214 300.392 218.722 301.185C217.239 301.97 215.514 302.362 213.547 302.362ZM230.624 298.921C229.77 298.921 229.037 298.619 228.425 298.015C227.821 297.412 227.519 296.679 227.519 295.816C227.519 294.971 227.821 294.247 228.425 293.643C229.037 293.039 229.77 292.737 230.624 292.737C231.452 292.737 232.176 293.039 232.797 293.643C233.418 294.247 233.729 294.971 233.729 295.816C233.729 296.385 233.582 296.907 233.289 297.382C233.004 297.847 232.629 298.222 232.163 298.507C231.698 298.783 231.184 298.921 230.624 298.921ZM230.624 285.92C229.77 285.92 229.037 285.618 228.425 285.014C227.821 284.41 227.519 283.677 227.519 282.815C227.519 281.97 227.821 281.249 228.425 280.654C229.037 280.051 229.77 279.749 230.624 279.749C231.452 279.749 232.176 280.051 232.797 280.654C233.418 281.249 233.729 281.97 233.729 282.815C233.729 283.393 233.582 283.919 233.289 284.393C233.004 284.859 232.629 285.23 232.163 285.506C231.698 285.782 231.184 285.92 230.624 285.92ZM237.801 297.343V292.931L248.862 275.505H252.665V281.612H250.414L243.441 292.647V292.854H259.159V297.343H237.801ZM250.517 302V295.997L250.621 294.044V275.505H255.873V302H250.517ZM272.568 302.362C270.74 302.362 269.11 302.026 267.678 301.353C266.255 300.68 265.125 299.753 264.289 298.572C263.452 297.39 263.017 296.036 262.982 294.51H268.415C268.476 295.536 268.907 296.368 269.709 297.006C270.511 297.645 271.464 297.964 272.568 297.964C273.448 297.964 274.224 297.77 274.897 297.382C275.578 296.985 276.109 296.437 276.488 295.739C276.876 295.031 277.07 294.221 277.07 293.306C277.07 292.375 276.872 291.556 276.475 290.848C276.087 290.141 275.548 289.589 274.858 289.193C274.168 288.796 273.379 288.593 272.491 288.585C271.714 288.585 270.96 288.744 270.227 289.063C269.502 289.382 268.937 289.818 268.532 290.37L263.551 289.477L264.806 275.505H281.003V280.085H269.425L268.739 286.722H268.894C269.36 286.066 270.063 285.523 271.003 285.092C271.943 284.66 272.995 284.445 274.159 284.445C275.755 284.445 277.178 284.82 278.429 285.57C279.679 286.321 280.667 287.351 281.391 288.662C282.116 289.964 282.473 291.465 282.465 293.164C282.473 294.949 282.059 296.536 281.223 297.925C280.395 299.305 279.235 300.392 277.743 301.185C276.259 301.97 274.535 302.362 272.568 302.362ZM294.959 302V275.505H305.411C307.421 275.505 309.133 275.889 310.547 276.657C311.962 277.416 313.04 278.472 313.782 279.826C314.532 281.172 314.907 282.724 314.907 284.484C314.907 286.243 314.528 287.795 313.769 289.141C313.01 290.486 311.91 291.534 310.47 292.284C309.038 293.035 307.305 293.41 305.269 293.41H298.607V288.921H304.364C305.442 288.921 306.33 288.735 307.029 288.365C307.736 287.985 308.262 287.463 308.607 286.799C308.96 286.127 309.137 285.355 309.137 284.484C309.137 283.604 308.96 282.836 308.607 282.181C308.262 281.517 307.736 281.004 307.029 280.641C306.321 280.271 305.424 280.085 304.338 280.085H300.56V302H294.959ZM318.546 275.505H325.454L332.75 293.306H333.061L340.357 275.505H347.265V302H341.832V284.755H341.612L334.755 301.871H331.055L324.199 284.691H323.979V302H318.546V275.505Z" fill="white"/>
<rect x="24" y="103" width="6" height="86" rx="2" fill="#5B38F8"/>
</svg>
